<mxfile host="app.diagrams.net" modified="2020-10-21T15:34:50.788Z" agent="5.0 (Windows NT 10.0; Win64; x64) AppleWebKit/537.36 (KHTML, like Gecko) Chrome/86.0.4240.75 Safari/537.36" etag="K6QmXjFhrITs7k-PnELa" version="13.8.1" type="github" pages="2">
  <diagram id="2dJAtTzYBBDmyN-PzjmT" name="Page-1">
    <mxGraphModel dx="2297" dy="1903" grid="1" gridSize="10" guides="1" tooltips="1" connect="1" arrows="1" fold="1" page="1" pageScale="1" pageWidth="850" pageHeight="1100" math="1" shadow="0">
      <root>
        <mxCell id="0" />
        <mxCell id="1" parent="0" />
        <mxCell id="4XUhLhnA6siuGQTpz5Ow-35" value="&lt;span style=&quot;font-size: 27px&quot;&gt;Chainlink EURO/USD &lt;br&gt;PRICE ORACLE&lt;/span&gt;" style="rounded=0;whiteSpace=wrap;html=1;shadow=0;dashed=1;dashPattern=1 1;labelBackgroundColor=none;strokeWidth=4;align=center;strokeColor=#10739e;glass=0;sketch=0;fillColor=#b1ddf0;fontSize=27;" vertex="1" parent="1">
          <mxGeometry x="690" y="280" width="220" height="180" as="geometry" />
        </mxCell>
        <mxCell id="G5pyGGpDoqd2RvzIEwfP-1" value="" style="shape=actor;whiteSpace=wrap;html=1;rounded=0;shadow=0;glass=0;labelBackgroundColor=none;sketch=0;strokeWidth=4;fillColor=#b0e3e6;fontSize=27;align=center;strokeColor=#0e8088;" vertex="1" parent="1">
          <mxGeometry x="80" y="320" width="40" height="60" as="geometry" />
        </mxCell>
        <mxCell id="uuhmvlGmtuIwiNIzIhra-4" value="" style="endArrow=classic;html=1;fontSize=27;fontColor=#000000;entryX=0.9;entryY=0.5;entryDx=0;entryDy=0;exitX=0.722;exitY=1.029;exitDx=0;exitDy=0;entryPerimeter=0;exitPerimeter=0;" edge="1" parent="1" source="4XUhLhnA6siuGQTpz5Ow-8" target="G5pyGGpDoqd2RvzIEwfP-1">
          <mxGeometry relative="1" as="geometry">
            <mxPoint x="290" y="60" as="sourcePoint" />
            <mxPoint x="390" y="60" as="targetPoint" />
            <Array as="points">
              <mxPoint x="280" y="350" />
            </Array>
          </mxGeometry>
        </mxCell>
        <mxCell id="uuhmvlGmtuIwiNIzIhra-5" value="1 aDais + 1/e aDAIu" style="edgeLabel;resizable=0;html=1;align=center;verticalAlign=middle;fontSize=16;" connectable="0" vertex="1" parent="uuhmvlGmtuIwiNIzIhra-4">
          <mxGeometry relative="1" as="geometry">
            <mxPoint x="-10.039999999999992" y="-83.69" as="offset" />
          </mxGeometry>
        </mxCell>
        <mxCell id="uuhmvlGmtuIwiNIzIhra-6" value="" style="endArrow=classic;html=1;fontSize=27;fontColor=#000000;exitX=0.5;exitY=0;exitDx=0;exitDy=0;entryX=0.217;entryY=1.005;entryDx=0;entryDy=0;entryPerimeter=0;" edge="1" parent="1" source="G5pyGGpDoqd2RvzIEwfP-1" target="4XUhLhnA6siuGQTpz5Ow-8">
          <mxGeometry relative="1" as="geometry">
            <mxPoint x="250" y="220" as="sourcePoint" />
            <mxPoint x="390" y="60" as="targetPoint" />
          </mxGeometry>
        </mxCell>
        <mxCell id="uuhmvlGmtuIwiNIzIhra-7" value="1 aDai" style="edgeLabel;resizable=0;html=1;align=center;verticalAlign=middle;fontSize=16;" connectable="0" vertex="1" parent="uuhmvlGmtuIwiNIzIhra-6">
          <mxGeometry relative="1" as="geometry" />
        </mxCell>
        <mxCell id="4XUhLhnA6siuGQTpz5Ow-33" value="&lt;h1&gt;&lt;font style=&quot;font-size: 27px&quot;&gt;&lt;u&gt;Main Contract&lt;/u&gt;&lt;/font&gt;&lt;/h1&gt;&lt;p style=&quot;font-size: 19px&quot;&gt;&lt;/p&gt;&lt;ol style=&quot;font-size: 18px&quot;&gt;&lt;li style=&quot;text-align: left&quot;&gt;&lt;font style=&quot;font-size: 18px&quot;&gt;Deposit aDai to the contract&lt;/font&gt;&lt;/li&gt;&lt;li style=&quot;text-align: left&quot;&gt;&lt;font style=&quot;font-size: 18px&quot;&gt;Owner calls price oracle and set initial exchange rate e = EUR/USD. Allow users to mind derivative tokens&lt;/font&gt;&lt;/li&gt;&lt;li style=&quot;text-align: left&quot;&gt;&lt;font style=&quot;font-size: 18px&quot;&gt;Users mint aDAIs and aDAIu against their deposits with fixed exchange rate e&lt;/font&gt;&lt;/li&gt;&lt;/ol&gt;&lt;p&gt;&lt;/p&gt;" style="text;html=1;strokeColor=none;fillColor=none;spacing=5;spacingTop=-20;whiteSpace=wrap;overflow=hidden;rounded=0;shadow=1;dashed=1;dashPattern=1 1;labelBackgroundColor=none;fontColor=#000000;align=center;" vertex="1" parent="1">
          <mxGeometry x="60" y="-310" width="770" height="150" as="geometry" />
        </mxCell>
        <mxCell id="uuhmvlGmtuIwiNIzIhra-39" value="" style="rounded=1;whiteSpace=wrap;html=1;shadow=0;glass=1;labelBackgroundColor=none;sketch=0;strokeWidth=4;gradientColor=none;fontSize=15;align=center;fillColor=none;" vertex="1" parent="1">
          <mxGeometry x="-15" y="-830" width="880" height="520" as="geometry" />
        </mxCell>
        <mxCell id="uuhmvlGmtuIwiNIzIhra-24" value="&#xa;&#xa;&lt;span style=&quot;color: rgb(0, 0, 0); font-family: lato, helvetica, arial, sans-serif; font-size: 13px; font-style: normal; font-weight: 400; letter-spacing: normal; text-align: left; text-indent: 0px; text-transform: none; word-spacing: 0px; background-color: rgb(255, 255, 255); display: inline; float: none;&quot;&gt;&lt;span&gt;&amp;nbsp;&lt;/span&gt;&lt;/span&gt;&lt;span style=&quot;box-sizing: border-box; color: rgb(0, 0, 0); font-size: 13px; font-style: normal; font-weight: 400; letter-spacing: normal; text-align: left; text-indent: 0px; text-transform: none; word-spacing: 0px; background-color: rgb(255, 255, 255); font-family: &amp;quot;courier new&amp;quot;, courier, monospace;&quot;&gt;$$\sqrt{3×-1}+(1+x)^2$$&lt;/span&gt;&#xa;&#xa;" style="shape=table;childLayout=tableLayout;rowLines=0;columnLines=0;startSize=40;html=1;whiteSpace=wrap;collapsible=0;recursiveResize=0;expand=0;pointerEvents=0;fontStyle=1;align=center;rounded=0;shadow=0;glass=0;labelBackgroundColor=none;sketch=0;strokeWidth=4;fontSize=23;strokeColor=#23445d;fillColor=#BAC8D3;" vertex="1" parent="1">
          <mxGeometry x="470" y="-150" width="340" height="245" as="geometry" />
        </mxCell>
        <mxCell id="uuhmvlGmtuIwiNIzIhra-29" value="&lt;font style=&quot;font-size: 18px&quot;&gt;final&lt;/font&gt;" style="swimlane;horizontal=0;points=[[0,0.5],[1,0.5]];portConstraint=eastwest;startSize=70;html=1;whiteSpace=wrap;collapsible=0;recursiveResize=0;expand=0;pointerEvents=0;" vertex="1" parent="uuhmvlGmtuIwiNIzIhra-24">
          <mxGeometry y="40" width="340" height="93" as="geometry" />
        </mxCell>
        <mxCell id="uuhmvlGmtuIwiNIzIhra-30" value="&lt;span style=&quot;font-family: &amp;#34;courier new&amp;#34; , &amp;#34;courier&amp;#34; , monospace ; font-size: 30px ; font-weight: 400 ; text-align: left ; background-color: rgb(255 , 255 , 255)&quot;&gt;$$&amp;nbsp;&lt;/span&gt;&lt;br style=&quot;font-family: &amp;#34;courier new&amp;#34; , &amp;#34;courier&amp;#34; , monospace ; font-size: 30px ; font-weight: 400 ; text-align: left ; background-color: rgb(255 , 255 , 255)&quot;&gt;&lt;span style=&quot;font-family: &amp;#34;courier new&amp;#34; , &amp;#34;courier&amp;#34; , monospace ; font-size: 30px ; font-weight: 400 ; text-align: left ; background-color: rgb(255 , 255 , 255)&quot;&gt;$$&lt;/span&gt;" style="swimlane;connectable=0;startSize=0;html=1;whiteSpace=wrap;collapsible=0;recursiveResize=0;expand=0;pointerEvents=0;" vertex="1" parent="uuhmvlGmtuIwiNIzIhra-29">
          <mxGeometry x="70" width="130" height="93" as="geometry" />
        </mxCell>
        <mxCell id="uuhmvlGmtuIwiNIzIhra-31" value="&#xa;&#xa;&lt;br style=&quot;color: rgb(0, 0, 0); font-family: helvetica; font-size: 23px; font-style: normal; font-weight: 700; letter-spacing: normal; text-align: center; text-indent: 0px; text-transform: none; word-spacing: 0px; background-color: rgb(248, 249, 250);&quot;&gt;&lt;br style=&quot;color: rgb(0, 0, 0); font-family: helvetica; font-size: 23px; font-style: normal; font-weight: 700; letter-spacing: normal; text-align: center; text-indent: 0px; text-transform: none; word-spacing: 0px; background-color: rgb(248, 249, 250);&quot;&gt;&lt;span style=&quot;color: rgb(0, 0, 0); font-style: normal; letter-spacing: normal; text-indent: 0px; text-transform: none; word-spacing: 0px; font-family: lato, helvetica, arial, sans-serif; font-size: 13px; font-weight: 400; text-align: left; background-color: rgb(255, 255, 255); display: inline; float: none;&quot;&gt;&lt;span&gt;&amp;nbsp;&lt;/span&gt;&lt;/span&gt;&lt;span style=&quot;color: rgb(0, 0, 0); font-style: normal; letter-spacing: normal; text-indent: 0px; text-transform: none; word-spacing: 0px; box-sizing: border-box; font-size: 13px; font-weight: 400; text-align: left; background-color: rgb(255, 255, 255); font-family: &amp;quot;courier new&amp;quot;, courier, monospace;&quot;&gt;$$\sqrt{3×-1}+(1+x)^2$$&lt;/span&gt;&lt;br style=&quot;color: rgb(0, 0, 0); font-family: helvetica; font-size: 23px; font-style: normal; font-weight: 700; letter-spacing: normal; text-align: center; text-indent: 0px; text-transform: none; word-spacing: 0px; background-color: rgb(248, 249, 250);&quot;&gt;&#xa;&#xa;" style="swimlane;connectable=0;startSize=0;html=1;whiteSpace=wrap;collapsible=0;recursiveResize=0;expand=0;pointerEvents=0;" vertex="1" parent="uuhmvlGmtuIwiNIzIhra-29">
          <mxGeometry x="200" width="115" height="93" as="geometry" />
        </mxCell>
        <mxCell id="uuhmvlGmtuIwiNIzIhra-32" value="" style="swimlane;connectable=0;startSize=0;html=1;whiteSpace=wrap;collapsible=0;recursiveResize=0;expand=0;pointerEvents=0;" vertex="1" parent="uuhmvlGmtuIwiNIzIhra-29">
          <mxGeometry x="315" width="25" height="93" as="geometry" />
        </mxCell>
        <mxCell id="uuhmvlGmtuIwiNIzIhra-33" value="&lt;font style=&quot;font-size: 18px&quot;&gt;initial&lt;/font&gt;" style="swimlane;horizontal=0;points=[[0,0.5],[1,0.5]];portConstraint=eastwest;startSize=70;html=1;whiteSpace=wrap;collapsible=0;recursiveResize=0;expand=0;pointerEvents=0;" vertex="1" parent="uuhmvlGmtuIwiNIzIhra-24">
          <mxGeometry y="133" width="340" height="112" as="geometry" />
        </mxCell>
        <mxCell id="uuhmvlGmtuIwiNIzIhra-34" value="&lt;span style=&quot;font-family: &amp;#34;courier new&amp;#34; , &amp;#34;courier&amp;#34; , monospace ; font-weight: 400 ; text-align: left ; background-color: rgb(255 , 255 , 255) ; font-size: 30px&quot;&gt;&lt;font style=&quot;font-size: 30px&quot;&gt;$$e_{initial}&amp;nbsp;&lt;br&gt;$$&lt;/font&gt;&lt;/span&gt;" style="swimlane;connectable=0;startSize=0;html=1;whiteSpace=wrap;collapsible=0;recursiveResize=0;expand=0;pointerEvents=0;align=center;verticalAlign=top;textDirection=ltr;" vertex="1" parent="uuhmvlGmtuIwiNIzIhra-33">
          <mxGeometry x="70" width="130" height="112" as="geometry" />
        </mxCell>
        <mxCell id="uuhmvlGmtuIwiNIzIhra-35" value="total balance&lt;br style=&quot;font-size: 22px;&quot;&gt;" style="swimlane;connectable=0;startSize=0;html=1;whiteSpace=wrap;collapsible=0;recursiveResize=0;expand=0;pointerEvents=0;fontSize=22;horizontal=1;textDirection=ltr;verticalAlign=top;" vertex="1" parent="uuhmvlGmtuIwiNIzIhra-33">
          <mxGeometry x="200" width="115" height="112" as="geometry" />
        </mxCell>
        <mxCell id="uuhmvlGmtuIwiNIzIhra-36" value="" style="swimlane;connectable=0;startSize=0;html=1;whiteSpace=wrap;collapsible=0;recursiveResize=0;expand=0;pointerEvents=0;" vertex="1" parent="uuhmvlGmtuIwiNIzIhra-33">
          <mxGeometry x="315" width="25" height="112" as="geometry" />
        </mxCell>
        <mxCell id="jAntQp2-VzLY4A2VR2Bl-1" value="" style="whiteSpace=wrap;html=1;strokeColor=#36393d;strokeWidth=1;fillColor=#cdeb8b;fontSize=14;" vertex="1" parent="1">
          <mxGeometry x="1350" y="-480" width="1260" height="1050" as="geometry" />
        </mxCell>
        <mxCell id="jAntQp2-VzLY4A2VR2Bl-2" value="Admin" style="rounded=1;whiteSpace=wrap;html=1;shadow=0;glass=1;labelBackgroundColor=none;sketch=0;strokeWidth=6;fontFamily=Helvetica;fontSize=22;align=center;strokeColor=#b46504;fillColor=none;" vertex="1" parent="1">
          <mxGeometry x="360" y="350" width="250" height="160" as="geometry" />
        </mxCell>
        <mxCell id="jAntQp2-VzLY4A2VR2Bl-11" value="" style="edgeStyle=elbowEdgeStyle;elbow=vertical;endArrow=classic;html=1;fontFamily=Helvetica;fontSize=22;fontColor=#000000;exitX=0.999;exitY=1.029;exitDx=0;exitDy=0;exitPerimeter=0;" edge="1" parent="1" source="4XUhLhnA6siuGQTpz5Ow-8">
          <mxGeometry width="50" height="50" relative="1" as="geometry">
            <mxPoint x="350" y="130" as="sourcePoint" />
            <mxPoint x="600" y="95" as="targetPoint" />
            <Array as="points">
              <mxPoint x="550" y="125" />
            </Array>
          </mxGeometry>
        </mxCell>
        <mxCell id="4XUhLhnA6siuGQTpz5Ow-1" value="Pre-Pool" style="shape=table;startSize=60;container=1;collapsible=1;childLayout=tableLayout;fixedRows=1;rowLines=0;fontStyle=1;align=center;resizeLast=1;rounded=0;shadow=1;strokeWidth=4;fillColor=#FFFF9C;fontSize=14;" vertex="1" parent="1">
          <mxGeometry x="20" y="-150" width="360" height="280" as="geometry">
            <mxRectangle x="190" y="-190" width="80" height="60" as="alternateBounds" />
          </mxGeometry>
        </mxCell>
        <mxCell id="4XUhLhnA6siuGQTpz5Ow-2" value="" style="shape=partialRectangle;collapsible=0;dropTarget=0;pointerEvents=0;fillColor=none;top=0;left=0;bottom=1;right=0;points=[[0,0.5],[1,0.5]];portConstraint=eastwest;" vertex="1" parent="4XUhLhnA6siuGQTpz5Ow-1">
          <mxGeometry y="60" width="360" height="50" as="geometry" />
        </mxCell>
        <mxCell id="4XUhLhnA6siuGQTpz5Ow-3" value="In" style="shape=partialRectangle;connectable=0;top=0;left=0;bottom=0;right=0;fontStyle=0;overflow=hidden;strokeColor=#0e8088;fillColor=#FFFF9C;align=center;fontSize=21;strokeWidth=14;" vertex="1" parent="4XUhLhnA6siuGQTpz5Ow-2">
          <mxGeometry width="110" height="50" as="geometry" />
        </mxCell>
        <mxCell id="4XUhLhnA6siuGQTpz5Ow-4" value="Out" style="shape=partialRectangle;connectable=0;top=0;left=0;bottom=0;right=0;align=center;spacingLeft=6;fontStyle=1;overflow=hidden;fillColor=#FFFF9C;fontSize=14;" vertex="1" parent="4XUhLhnA6siuGQTpz5Ow-2">
          <mxGeometry x="110" width="250" height="50" as="geometry" />
        </mxCell>
        <mxCell id="4XUhLhnA6siuGQTpz5Ow-5" value="" style="shape=partialRectangle;collapsible=0;dropTarget=0;pointerEvents=0;fillColor=none;top=0;left=0;bottom=0;right=0;points=[[0,0.5],[1,0.5]];portConstraint=eastwest;" vertex="1" parent="4XUhLhnA6siuGQTpz5Ow-1">
          <mxGeometry y="110" width="360" height="100" as="geometry" />
        </mxCell>
        <mxCell id="4XUhLhnA6siuGQTpz5Ow-6" value="2 aDai" style="shape=partialRectangle;connectable=0;top=0;left=0;bottom=0;right=0;editable=1;overflow=hidden;fontStyle=1;strokeColor=#0e8088;fillColor=#FFFFB8;" vertex="1" parent="4XUhLhnA6siuGQTpz5Ow-5">
          <mxGeometry width="110" height="100" as="geometry" />
        </mxCell>
        <mxCell id="4XUhLhnA6siuGQTpz5Ow-7" value="1 aDAIs" style="shape=partialRectangle;connectable=0;top=0;left=0;bottom=0;right=0;align=center;spacingLeft=6;overflow=hidden;dashed=1;dashPattern=1 1;fontStyle=1;fillColor=#FFFFB8;fontSize=15;" vertex="1" parent="4XUhLhnA6siuGQTpz5Ow-5">
          <mxGeometry x="110" width="250" height="100" as="geometry" />
        </mxCell>
        <mxCell id="4XUhLhnA6siuGQTpz5Ow-8" value="" style="shape=partialRectangle;collapsible=0;dropTarget=0;pointerEvents=0;fillColor=none;top=0;left=0;bottom=0;right=0;points=[[0,0.5],[1,0.5]];portConstraint=eastwest;" vertex="1" parent="4XUhLhnA6siuGQTpz5Ow-1">
          <mxGeometry y="210" width="360" height="70" as="geometry" />
        </mxCell>
        <mxCell id="4XUhLhnA6siuGQTpz5Ow-9" value="" style="shape=partialRectangle;connectable=0;top=0;left=0;bottom=0;right=0;editable=1;overflow=hidden;strokeColor=#10739e;fillColor=#FFFFB8;" vertex="1" parent="4XUhLhnA6siuGQTpz5Ow-8">
          <mxGeometry width="110" height="70" as="geometry" />
        </mxCell>
        <mxCell id="4XUhLhnA6siuGQTpz5Ow-10" value="1/e aDAIu" style="shape=partialRectangle;connectable=0;top=0;left=0;bottom=0;right=0;align=center;spacingLeft=6;overflow=hidden;labelBackgroundColor=none;fontStyle=1;fillColor=#FFFFB8;fontSize=15;fontFamily=Helvetica;" vertex="1" parent="4XUhLhnA6siuGQTpz5Ow-8">
          <mxGeometry x="110" width="250" height="70" as="geometry" />
        </mxCell>
        <mxCell id="jAntQp2-VzLY4A2VR2Bl-14" value="" style="edgeStyle=elbowEdgeStyle;elbow=vertical;endArrow=classic;html=1;fontFamily=Helvetica;fontSize=22;fontColor=#000000;exitX=0.5;exitY=0;exitDx=0;exitDy=0;" edge="1" parent="1" source="4XUhLhnA6siuGQTpz5Ow-35">
          <mxGeometry width="50" height="50" relative="1" as="geometry">
            <mxPoint x="610" y="300" as="sourcePoint" />
            <mxPoint x="770" y="100" as="targetPoint" />
          </mxGeometry>
        </mxCell>
        <mxCell id="jAntQp2-VzLY4A2VR2Bl-15" value="" style="edgeStyle=elbowEdgeStyle;elbow=vertical;endArrow=classic;html=1;fontFamily=Helvetica;fontSize=22;fontColor=#000000;" edge="1" parent="1" source="jAntQp2-VzLY4A2VR2Bl-2">
          <mxGeometry width="50" height="50" relative="1" as="geometry">
            <mxPoint x="350" y="130" as="sourcePoint" />
            <mxPoint x="380" y="130" as="targetPoint" />
          </mxGeometry>
        </mxCell>
        <mxCell id="jAntQp2-VzLY4A2VR2Bl-17" value="" style="edgeStyle=elbowEdgeStyle;elbow=vertical;endArrow=classic;html=1;fontFamily=Helvetica;fontSize=22;fontColor=#000000;exitX=0.5;exitY=0;exitDx=0;exitDy=0;" edge="1" parent="1" source="jAntQp2-VzLY4A2VR2Bl-2">
          <mxGeometry width="50" height="50" relative="1" as="geometry">
            <mxPoint x="350" y="130" as="sourcePoint" />
            <mxPoint x="800" y="280" as="targetPoint" />
          </mxGeometry>
        </mxCell>
      </root>
    </mxGraphModel>
  </diagram>
  <diagram id="HZ3dKPAo8PAfwK-Si58E" name="Page-2">
    <mxGraphModel dx="1736" dy="2064" grid="1" gridSize="10" guides="1" tooltips="1" connect="1" arrows="1" fold="1" page="1" pageScale="1" pageWidth="850" pageHeight="1100" math="1" shadow="0">
      <root>
        <mxCell id="-0bQhvXT2Ae33jYl0nog-0" />
        <mxCell id="-0bQhvXT2Ae33jYl0nog-1" parent="-0bQhvXT2Ae33jYl0nog-0" />
        <mxCell id="q7pW13zmBW2GbzMplSvc-33" value="&lt;span style=&quot;font-size: 27px&quot;&gt;Chainlink EURO/USD &lt;br&gt;PRICE ORACLE&lt;/span&gt;" style="rounded=0;whiteSpace=wrap;html=1;shadow=0;dashed=1;dashPattern=1 1;labelBackgroundColor=none;strokeWidth=4;align=center;strokeColor=#10739e;glass=0;sketch=0;fillColor=#b1ddf0;fontSize=27;" vertex="1" parent="-0bQhvXT2Ae33jYl0nog-1">
          <mxGeometry x="700" y="290" width="220" height="180" as="geometry" />
        </mxCell>
        <mxCell id="q7pW13zmBW2GbzMplSvc-34" value="" style="shape=actor;whiteSpace=wrap;html=1;rounded=0;shadow=0;glass=0;labelBackgroundColor=none;sketch=0;strokeWidth=4;fillColor=#b0e3e6;fontSize=27;align=center;strokeColor=#0e8088;" vertex="1" parent="-0bQhvXT2Ae33jYl0nog-1">
          <mxGeometry x="90" y="290" width="40" height="60" as="geometry" />
        </mxCell>
        <mxCell id="q7pW13zmBW2GbzMplSvc-35" value="" style="endArrow=classic;html=1;fontSize=27;fontColor=#000000;entryX=0.9;entryY=0.5;entryDx=0;entryDy=0;exitX=0.722;exitY=1.029;exitDx=0;exitDy=0;entryPerimeter=0;exitPerimeter=0;" edge="1" parent="-0bQhvXT2Ae33jYl0nog-1" source="q7pW13zmBW2GbzMplSvc-60" target="q7pW13zmBW2GbzMplSvc-34">
          <mxGeometry relative="1" as="geometry">
            <mxPoint x="300" y="70" as="sourcePoint" />
            <mxPoint x="400" y="70" as="targetPoint" />
            <Array as="points">
              <mxPoint x="290" y="360" />
            </Array>
          </mxGeometry>
        </mxCell>
        <mxCell id="q7pW13zmBW2GbzMplSvc-36" value="1 aDais + 1/e aDAIu" style="edgeLabel;resizable=0;html=1;align=center;verticalAlign=middle;fontSize=16;" connectable="0" vertex="1" parent="q7pW13zmBW2GbzMplSvc-35">
          <mxGeometry relative="1" as="geometry">
            <mxPoint x="-10.039999999999992" y="-83.69" as="offset" />
          </mxGeometry>
        </mxCell>
        <mxCell id="q7pW13zmBW2GbzMplSvc-37" value="" style="endArrow=classic;html=1;fontSize=27;fontColor=#000000;exitX=0.5;exitY=0;exitDx=0;exitDy=0;entryX=0.217;entryY=1.005;entryDx=0;entryDy=0;entryPerimeter=0;" edge="1" parent="-0bQhvXT2Ae33jYl0nog-1" source="q7pW13zmBW2GbzMplSvc-34" target="q7pW13zmBW2GbzMplSvc-60">
          <mxGeometry relative="1" as="geometry">
            <mxPoint x="260" y="230" as="sourcePoint" />
            <mxPoint x="400" y="70" as="targetPoint" />
          </mxGeometry>
        </mxCell>
        <mxCell id="q7pW13zmBW2GbzMplSvc-38" value="1 aDai" style="edgeLabel;resizable=0;html=1;align=center;verticalAlign=middle;fontSize=16;" connectable="0" vertex="1" parent="q7pW13zmBW2GbzMplSvc-37">
          <mxGeometry relative="1" as="geometry" />
        </mxCell>
        <mxCell id="q7pW13zmBW2GbzMplSvc-39" value="&lt;h1&gt;&lt;font style=&quot;font-size: 27px&quot;&gt;&lt;u&gt;Main Contract&lt;/u&gt;&lt;/font&gt;&lt;/h1&gt;&lt;p style=&quot;font-size: 19px&quot;&gt;&lt;/p&gt;&lt;ol style=&quot;font-size: 18px&quot;&gt;&lt;li style=&quot;text-align: left&quot;&gt;&lt;font style=&quot;font-size: 18px&quot;&gt;Deposit aDai to the contract&lt;/font&gt;&lt;/li&gt;&lt;li style=&quot;text-align: left&quot;&gt;&lt;font style=&quot;font-size: 18px&quot;&gt;Owner calls price oracle and set initial exchange rate e = EUR/USD. Allow users to mind derivative tokens&lt;/font&gt;&lt;/li&gt;&lt;li style=&quot;text-align: left&quot;&gt;&lt;font style=&quot;font-size: 18px&quot;&gt;Users mint aDAIs and aDAIu against their deposits with fixed exchange rate e&lt;/font&gt;&lt;/li&gt;&lt;/ol&gt;&lt;p&gt;&lt;/p&gt;" style="text;html=1;strokeColor=none;fillColor=none;spacing=5;spacingTop=-20;whiteSpace=wrap;overflow=hidden;rounded=0;shadow=1;dashed=1;dashPattern=1 1;labelBackgroundColor=none;fontColor=#000000;align=center;" vertex="1" parent="-0bQhvXT2Ae33jYl0nog-1">
          <mxGeometry x="70" y="-300" width="770" height="150" as="geometry" />
        </mxCell>
        <mxCell id="q7pW13zmBW2GbzMplSvc-40" value="" style="rounded=1;whiteSpace=wrap;html=1;shadow=0;glass=1;labelBackgroundColor=none;sketch=0;strokeWidth=4;gradientColor=none;fontSize=15;align=center;fillColor=none;" vertex="1" parent="-0bQhvXT2Ae33jYl0nog-1">
          <mxGeometry x="1040" y="-400" width="880" height="520" as="geometry" />
        </mxCell>
        <mxCell id="q7pW13zmBW2GbzMplSvc-41" value="state variables" style="shape=table;childLayout=tableLayout;rowLines=0;columnLines=0;startSize=40;html=1;whiteSpace=wrap;collapsible=0;recursiveResize=0;expand=0;pointerEvents=0;fontStyle=1;align=center;rounded=0;shadow=0;glass=0;labelBackgroundColor=none;sketch=0;strokeWidth=4;fillColor=#ffffff;gradientColor=none;fontSize=23;fontColor=#000000;" vertex="1" parent="-0bQhvXT2Ae33jYl0nog-1">
          <mxGeometry x="480" y="-140" width="340" height="245" as="geometry" />
        </mxCell>
        <mxCell id="q7pW13zmBW2GbzMplSvc-42" value="&lt;font style=&quot;font-size: 18px&quot;&gt;final&lt;/font&gt;" style="swimlane;horizontal=0;points=[[0,0.5],[1,0.5]];portConstraint=eastwest;startSize=70;html=1;whiteSpace=wrap;collapsible=0;recursiveResize=0;expand=0;pointerEvents=0;" vertex="1" parent="q7pW13zmBW2GbzMplSvc-41">
          <mxGeometry y="40" width="340" height="93" as="geometry" />
        </mxCell>
        <mxCell id="q7pW13zmBW2GbzMplSvc-43" value="&lt;font style=&quot;font-size: 30px&quot;&gt;&lt;br&gt;&lt;br&gt;&lt;span style=&quot;color: rgb(0 , 0 , 0) ; font-family: &amp;#34;lato&amp;#34; , &amp;#34;helvetica&amp;#34; , &amp;#34;arial&amp;#34; , sans-serif ; font-style: normal ; font-weight: 400 ; letter-spacing: normal ; text-align: left ; text-indent: 0px ; text-transform: none ; word-spacing: 0px ; background-color: rgb(255 , 255 , 255) ; display: inline ; float: none&quot;&gt;&lt;span&gt;&amp;nbsp;&lt;/span&gt;&lt;/span&gt;&lt;span style=&quot;box-sizing: border-box ; color: rgb(0 , 0 , 0) ; font-style: normal ; font-weight: 400 ; letter-spacing: normal ; text-align: left ; text-indent: 0px ; text-transform: none ; word-spacing: 0px ; background-color: rgb(255 , 255 , 255) ; font-family: &amp;#34;courier new&amp;#34; , &amp;#34;courier&amp;#34; , monospace&quot;&gt;$$e_{final}$$&lt;/span&gt;&lt;br&gt;&lt;/font&gt;" style="swimlane;connectable=0;startSize=0;html=1;whiteSpace=wrap;collapsible=0;recursiveResize=0;expand=0;pointerEvents=0;" vertex="1" parent="q7pW13zmBW2GbzMplSvc-42">
          <mxGeometry x="70" width="130" height="93" as="geometry" />
        </mxCell>
        <mxCell id="q7pW13zmBW2GbzMplSvc-44" value="total final balance" style="swimlane;connectable=0;startSize=0;html=1;whiteSpace=wrap;collapsible=0;recursiveResize=0;expand=0;pointerEvents=0;fontSize=22;verticalAlign=top;" vertex="1" parent="q7pW13zmBW2GbzMplSvc-42">
          <mxGeometry x="200" width="115" height="93" as="geometry" />
        </mxCell>
        <mxCell id="q7pW13zmBW2GbzMplSvc-45" value="" style="swimlane;connectable=0;startSize=0;html=1;whiteSpace=wrap;collapsible=0;recursiveResize=0;expand=0;pointerEvents=0;" vertex="1" parent="q7pW13zmBW2GbzMplSvc-42">
          <mxGeometry x="315" width="25" height="93" as="geometry" />
        </mxCell>
        <mxCell id="q7pW13zmBW2GbzMplSvc-46" value="&lt;font style=&quot;font-size: 18px&quot;&gt;initial&lt;/font&gt;" style="swimlane;horizontal=0;points=[[0,0.5],[1,0.5]];portConstraint=eastwest;startSize=70;html=1;whiteSpace=wrap;collapsible=0;recursiveResize=0;expand=0;pointerEvents=0;" vertex="1" parent="q7pW13zmBW2GbzMplSvc-41">
          <mxGeometry y="133" width="340" height="112" as="geometry" />
        </mxCell>
        <mxCell id="q7pW13zmBW2GbzMplSvc-47" value="&lt;span style=&quot;font-family: &amp;#34;courier new&amp;#34; , &amp;#34;courier&amp;#34; , monospace ; font-weight: 400 ; text-align: left ; background-color: rgb(255 , 255 , 255) ; font-size: 30px&quot;&gt;&lt;font style=&quot;font-size: 30px&quot;&gt;$$e_{initial}&amp;nbsp;&lt;br&gt;$$&lt;/font&gt;&lt;/span&gt;" style="swimlane;connectable=0;startSize=0;html=1;whiteSpace=wrap;collapsible=0;recursiveResize=0;expand=0;pointerEvents=0;align=center;verticalAlign=top;textDirection=ltr;" vertex="1" parent="q7pW13zmBW2GbzMplSvc-46">
          <mxGeometry x="70" width="130" height="112" as="geometry" />
        </mxCell>
        <mxCell id="q7pW13zmBW2GbzMplSvc-48" value="total inital balance" style="swimlane;connectable=0;startSize=0;html=1;whiteSpace=wrap;collapsible=0;recursiveResize=0;expand=0;pointerEvents=0;fontSize=22;horizontal=1;textDirection=ltr;verticalAlign=top;" vertex="1" parent="q7pW13zmBW2GbzMplSvc-46">
          <mxGeometry x="200" width="115" height="112" as="geometry" />
        </mxCell>
        <mxCell id="q7pW13zmBW2GbzMplSvc-49" value="" style="swimlane;connectable=0;startSize=0;html=1;whiteSpace=wrap;collapsible=0;recursiveResize=0;expand=0;pointerEvents=0;" vertex="1" parent="q7pW13zmBW2GbzMplSvc-46">
          <mxGeometry x="315" width="25" height="112" as="geometry" />
        </mxCell>
        <mxCell id="q7pW13zmBW2GbzMplSvc-51" value="Admin" style="rounded=1;whiteSpace=wrap;html=1;shadow=0;glass=1;labelBackgroundColor=none;sketch=0;strokeWidth=6;fillColor=none;gradientColor=none;fontFamily=Helvetica;fontSize=22;fontColor=#000000;align=center;" vertex="1" parent="-0bQhvXT2Ae33jYl0nog-1">
          <mxGeometry x="370" y="360" width="250" height="160" as="geometry" />
        </mxCell>
        <mxCell id="q7pW13zmBW2GbzMplSvc-52" value="" style="edgeStyle=elbowEdgeStyle;elbow=vertical;endArrow=classic;html=1;fontFamily=Helvetica;fontSize=22;fontColor=#000000;exitX=1;exitY=0.5;exitDx=0;exitDy=0;" edge="1" parent="-0bQhvXT2Ae33jYl0nog-1" source="q7pW13zmBW2GbzMplSvc-60">
          <mxGeometry width="50" height="50" relative="1" as="geometry">
            <mxPoint x="360" y="140" as="sourcePoint" />
            <mxPoint x="740" y="-30" as="targetPoint" />
            <Array as="points">
              <mxPoint x="560" y="135" />
            </Array>
          </mxGeometry>
        </mxCell>
        <mxCell id="q7pW13zmBW2GbzMplSvc-53" value="Pre-Pool" style="shape=table;startSize=60;container=1;collapsible=1;childLayout=tableLayout;fixedRows=1;rowLines=0;fontStyle=1;align=center;resizeLast=1;rounded=0;shadow=1;strokeWidth=4;fillColor=#FFFF9C;fontSize=14;" vertex="1" parent="-0bQhvXT2Ae33jYl0nog-1">
          <mxGeometry x="30" y="-140" width="360" height="280" as="geometry">
            <mxRectangle x="190" y="-190" width="80" height="60" as="alternateBounds" />
          </mxGeometry>
        </mxCell>
        <mxCell id="q7pW13zmBW2GbzMplSvc-54" value="" style="shape=partialRectangle;collapsible=0;dropTarget=0;pointerEvents=0;fillColor=none;top=0;left=0;bottom=1;right=0;points=[[0,0.5],[1,0.5]];portConstraint=eastwest;" vertex="1" parent="q7pW13zmBW2GbzMplSvc-53">
          <mxGeometry y="60" width="360" height="50" as="geometry" />
        </mxCell>
        <mxCell id="q7pW13zmBW2GbzMplSvc-55" value="In" style="shape=partialRectangle;connectable=0;top=0;left=0;bottom=0;right=0;fontStyle=0;overflow=hidden;strokeColor=#0e8088;fillColor=#FFFF9C;align=center;fontSize=21;strokeWidth=14;" vertex="1" parent="q7pW13zmBW2GbzMplSvc-54">
          <mxGeometry width="110" height="50" as="geometry" />
        </mxCell>
        <mxCell id="q7pW13zmBW2GbzMplSvc-56" value="Out" style="shape=partialRectangle;connectable=0;top=0;left=0;bottom=0;right=0;align=center;spacingLeft=6;fontStyle=1;overflow=hidden;fillColor=#FFFF9C;fontSize=14;" vertex="1" parent="q7pW13zmBW2GbzMplSvc-54">
          <mxGeometry x="110" width="250" height="50" as="geometry" />
        </mxCell>
        <mxCell id="q7pW13zmBW2GbzMplSvc-57" value="" style="shape=partialRectangle;collapsible=0;dropTarget=0;pointerEvents=0;fillColor=none;top=0;left=0;bottom=0;right=0;points=[[0,0.5],[1,0.5]];portConstraint=eastwest;" vertex="1" parent="q7pW13zmBW2GbzMplSvc-53">
          <mxGeometry y="110" width="360" height="100" as="geometry" />
        </mxCell>
        <mxCell id="q7pW13zmBW2GbzMplSvc-58" value="2 aDai" style="shape=partialRectangle;connectable=0;top=0;left=0;bottom=0;right=0;editable=1;overflow=hidden;fontStyle=1;strokeColor=#0e8088;fillColor=#FFFFB8;" vertex="1" parent="q7pW13zmBW2GbzMplSvc-57">
          <mxGeometry width="110" height="100" as="geometry" />
        </mxCell>
        <mxCell id="q7pW13zmBW2GbzMplSvc-59" value="1 aDAIs" style="shape=partialRectangle;connectable=0;top=0;left=0;bottom=0;right=0;align=center;spacingLeft=6;overflow=hidden;dashed=1;dashPattern=1 1;fontStyle=1;fillColor=#FFFFB8;fontSize=15;" vertex="1" parent="q7pW13zmBW2GbzMplSvc-57">
          <mxGeometry x="110" width="250" height="100" as="geometry" />
        </mxCell>
        <mxCell id="q7pW13zmBW2GbzMplSvc-60" value="" style="shape=partialRectangle;collapsible=0;dropTarget=0;pointerEvents=0;fillColor=none;top=0;left=0;bottom=0;right=0;points=[[0,0.5],[1,0.5]];portConstraint=eastwest;" vertex="1" parent="q7pW13zmBW2GbzMplSvc-53">
          <mxGeometry y="210" width="360" height="70" as="geometry" />
        </mxCell>
        <mxCell id="q7pW13zmBW2GbzMplSvc-61" value="" style="shape=partialRectangle;connectable=0;top=0;left=0;bottom=0;right=0;editable=1;overflow=hidden;strokeColor=#10739e;fillColor=#FFFFB8;" vertex="1" parent="q7pW13zmBW2GbzMplSvc-60">
          <mxGeometry width="110" height="70" as="geometry" />
        </mxCell>
        <mxCell id="q7pW13zmBW2GbzMplSvc-62" value="1/e aDAIu" style="shape=partialRectangle;connectable=0;top=0;left=0;bottom=0;right=0;align=center;spacingLeft=6;overflow=hidden;labelBackgroundColor=none;fontStyle=1;fillColor=#FFFFB8;fontSize=15;fontFamily=Helvetica;" vertex="1" parent="q7pW13zmBW2GbzMplSvc-60">
          <mxGeometry x="110" width="250" height="70" as="geometry" />
        </mxCell>
        <mxCell id="q7pW13zmBW2GbzMplSvc-63" value="" style="edgeStyle=elbowEdgeStyle;elbow=vertical;endArrow=classic;html=1;fontFamily=Helvetica;fontSize=22;fontColor=#000000;exitX=0.5;exitY=0;exitDx=0;exitDy=0;" edge="1" parent="-0bQhvXT2Ae33jYl0nog-1" source="q7pW13zmBW2GbzMplSvc-33">
          <mxGeometry width="50" height="50" relative="1" as="geometry">
            <mxPoint x="620" y="310" as="sourcePoint" />
            <mxPoint x="620" y="-50" as="targetPoint" />
          </mxGeometry>
        </mxCell>
        <mxCell id="q7pW13zmBW2GbzMplSvc-64" value="" style="edgeStyle=elbowEdgeStyle;elbow=vertical;endArrow=classic;html=1;fontFamily=Helvetica;fontSize=22;fontColor=#000000;" edge="1" parent="-0bQhvXT2Ae33jYl0nog-1" source="q7pW13zmBW2GbzMplSvc-51">
          <mxGeometry width="50" height="50" relative="1" as="geometry">
            <mxPoint x="360" y="140" as="sourcePoint" />
            <mxPoint x="390" y="140" as="targetPoint" />
          </mxGeometry>
        </mxCell>
        <mxCell id="q7pW13zmBW2GbzMplSvc-65" value="" style="edgeStyle=elbowEdgeStyle;elbow=vertical;endArrow=classic;html=1;fontFamily=Helvetica;fontSize=22;fontColor=#000000;exitX=0.5;exitY=0;exitDx=0;exitDy=0;" edge="1" parent="-0bQhvXT2Ae33jYl0nog-1" source="q7pW13zmBW2GbzMplSvc-51">
          <mxGeometry width="50" height="50" relative="1" as="geometry">
            <mxPoint x="360" y="140" as="sourcePoint" />
            <mxPoint x="810" y="290" as="targetPoint" />
          </mxGeometry>
        </mxCell>
        <mxCell id="JzG8RKnEVVF3WH0JryZK-1" value="" style="shape=actor;whiteSpace=wrap;html=1;rounded=0;shadow=0;glass=0;labelBackgroundColor=none;sketch=0;strokeWidth=4;fillColor=#b0e3e6;fontSize=27;align=center;strokeColor=#0e8088;" vertex="1" parent="-0bQhvXT2Ae33jYl0nog-1">
          <mxGeometry x="90" y="440" width="40" height="60" as="geometry" />
        </mxCell>
      </root>
    </mxGraphModel>
  </diagram>
</mxfile>
